<?xml version="1.0" encoding="UTF-8"?>
<svg version="1.1" xmlns="http://www.w3.org/2000/svg" xmlns:xlink="http://www.w3.org/1999/xlink">
    <defs>
        <linearGradient x1="31.835835%" y1="18.7750147%" x2="79.5857988%" y2="100%" id="linearGradient-1">
            <stop stop-color="#FFBC3F" offset="0%"></stop>
            <stop stop-color="#FDCD38" offset="45.741654%"></stop>
            <stop stop-color="#FDD43F" offset="100%"></stop>
        </linearGradient>
    </defs>
    <g id="页面-1" stroke="none" stroke-width="1" fill="none" fill-rule="evenodd">
        <g id="通知公告" transform="translate(-26.000000, -141.000000)">
            <g id="手风琴菜单" transform="translate(0.000000, 64.000000)">
                <g id="编组-33" transform="translate(12.000000, 16.000000)">
                    <g id="编组-10" transform="translate(0.000000, 46.000000)">
                        <g id="手风琴图标/动态发布" transform="translate(12.000000, 13.000000)">
                            <rect id="矩形" x="0" y="0" width="20" height="20"></rect>
                            <g id="编组" transform="translate(4.000000, 3.000000)">
                                <path d="M10.3265135,6.16665599 L11.8129119,7.65870933 L8.87841606,10.6043693 C8.71325687,10.7701568 8.57464941,10.9122531 8.46257648,11.0306752 C8.35052069,11.1490801 8.28858386,11.214214 8.2767831,11.2260596 C8.21779645,11.273425 8.15292658,11.3237519 8.08213917,11.3770401 C8.01135176,11.4303283 7.9405815,11.4747323 7.86979409,11.5102521 C7.79900668,11.5457718 7.68988394,11.5901758 7.5424259,11.643464 C7.39496786,11.6967523 7.24455961,11.7470791 7.09120118,11.7944445 C6.93784275,11.8418099 6.79038471,11.8832697 6.64882704,11.9187895 C6.50726937,11.9543264 6.40109683,11.9780005 6.33030942,11.9898462 C6.1887346,12.0135375 6.09436282,11.995769 6.04717693,11.9365579 C5.99999992,11.8773469 5.98820743,11.7766932 6.0117918,11.634597 C6.02359256,11.5635403 6.04719408,11.4569638 6.08257921,11.3148676 C6.1179815,11.1727542 6.159267,11.0276965 6.20645289,10.8796775 C6.25363878,10.7316585 6.29787449,10.5925064 6.33915999,10.4622559 C6.38044549,10.3319881 6.41289759,10.2431801 6.43648196,10.1958147 C6.50726937,10.0418728 6.60164115,9.90569941 6.71961445,9.78727729 L6.71961445,9.78727729 L7.39203481,9.11229873 C7.56899476,8.93466553 7.76363871,8.73631968 7.97598379,8.5172439 C8.18832887,8.29816815 8.40067395,8.08205379 8.61301903,7.86890085 C9.12028021,7.35970982 9.68947824,6.79130773 10.3265135,6.16665599 L10.3265135,6.16665599 Z M11.7329336,5.00142016 L11.830613,5.00319907 C11.9957722,5.02096756 12.1314295,5.05944872 12.2376021,5.11865979 C12.3555754,5.17787085 12.4823993,5.2814859 12.6180565,5.42950494 C12.7537138,5.577524 12.8569362,5.73442728 12.9277236,5.90021481 L12.9277236,5.90021481 L12.9591808,6.00284209 C12.9775338,6.07652416 12.9906495,6.16073315 12.9985281,6.25546395 C13.0103118,6.39756017 12.9513423,6.53373357 12.8215682,6.66400135 C12.7625816,6.72321241 12.7094953,6.77946204 12.6623094,6.83275029 C12.6151235,6.88603851 12.5738208,6.93044251 12.5384357,6.96596226 C12.4912498,7.01332767 12.4499471,7.04884742 12.414562,7.07253873 L12.414562,7.07253873 L10.9104625,5.58048539 C10.9812327,5.52127433 11.0608707,5.45021762 11.1493421,5.36733246 C11.2378306,5.28444731 11.3115511,5.21931342 11.3705377,5.17194801 C11.5120954,5.04168023 11.6654538,4.98543058 11.830613,5.00319907 Z" id="形状结合备份" fill="#FFE047"></path>
                                <path d="M6,0 L6,2 C6,3.0543618 6.81587779,3.91816512 7.85073766,3.99451426 L8,4 L10,4 L10,11 C10,12.1045695 9.1045695,13 8,13 L2,13 C0.8954305,13 1.3527075e-16,12.1045695 0,11 L0,2 C-1.3527075e-16,0.8954305 0.8954305,2.02906125e-16 2,0 L6,0 Z M10,0 L10,3 L9,3 C7.8954305,3 7,2.1045695 7,1 L7,0 L10,0 Z" id="形状结合" fill="url(#linearGradient-1)"></path>
                                <path d="M9.99851696,6.48917175 L9.999,9.47817175 L8.87841606,10.6043693 C8.71325687,10.7701568 8.57464941,10.9122531 8.46257648,11.0306752 C8.39534301,11.1017181 8.34615236,11.1535835 8.31500823,11.1862676 L8.2767831,11.2260596 L8.2767831,11.2260596 C8.21779645,11.273425 8.15292658,11.3237519 8.08213917,11.3770401 C8.01135176,11.4303283 7.9405815,11.4747323 7.86979409,11.5102521 C7.79900668,11.5457718 7.68988394,11.5901758 7.5424259,11.643464 C7.39496786,11.6967523 7.24455961,11.7470791 7.09120118,11.7944445 C6.93784275,11.8418099 6.79038471,11.8832697 6.64882704,11.9187895 C6.50726937,11.9543264 6.40109683,11.9780005 6.33030942,11.9898462 C6.1887346,12.0135375 6.09436282,11.995769 6.04717693,11.9365579 C5.99999992,11.8773469 5.98820743,11.7766932 6.0117918,11.634597 C6.02359256,11.5635403 6.04719408,11.4569638 6.08257921,11.3148676 C6.1179815,11.1727542 6.159267,11.0276965 6.20645289,10.8796775 C6.25363878,10.7316585 6.29787449,10.5925064 6.33915999,10.4622559 C6.38044549,10.3319881 6.41289759,10.2431801 6.43648196,10.1958147 C6.48367356,10.0931868 6.54134711,9.99845595 6.60950768,9.91161714 L6.71961445,9.78727729 L7.39203481,9.11229873 C7.56899476,8.93466553 7.76363871,8.73631968 7.97598379,8.5172439 C8.18832887,8.29816815 8.40067395,8.08205379 8.61301903,7.86890085 C9.03157732,7.44875018 9.49230504,6.98828592 9.99851696,6.48917175 Z" id="形状结合" fill="#F78C12"></path>
                                <rect id="矩形" fill="#FFFFFF" x="1" y="3" width="4" height="2" rx="1"></rect>
                                <rect id="矩形备份-2" fill="#FFFFFF" x="1" y="7" width="6" height="2" rx="1"></rect>
                            </g>
                        </g>
                    </g>
                </g>
            </g>
        </g>
    </g>
</svg>
